@startuml

title UML-діаграма розгортання ПП

left to right direction

skinparam componentStyle uml1

node "<<Web-page>>" as wp {
    node "<<OS Windows, OS Linux, Mac OS>>" as w1 {
        component [*.js(Vue)]
    }
}

interface Keyboard

interface Mouse

Keyboard -- wp

Mouse -- wp

node "<<Server 1>>" as serv1 {
    node "<<OS Linux>>" as w2 {
      node "<<Node.js>>"{
        component [*.js]
      }
    }
}

node "<<Server 3>>" as serv3 {
    node "<<OS Linux>>" as w3 {
      node "<<PostgreSQL>>"{
        component [Relation Database]
      }
    }
}

wp -- serv1
serv1 -- serv3

@enduml
